<?xml version="1.0" encoding="iso-8859-1"?>
<!-- Generator: Adobe Illustrator 16.0.0, SVG Export Plug-In . SVG Version: 6.00 Build 0)  -->
<!DOCTYPE svg PUBLIC "-//W3C//DTD SVG 1.1//EN" "http://www.w3.org/Graphics/SVG/1.1/DTD/svg11.dtd">
<svg version="1.1" id="Capa_1" xmlns="http://www.w3.org/2000/svg" xmlns:xlink="http://www.w3.org/1999/xlink" x="0px" y="0px"
	 width="612.594px" height="612.594px" viewBox="0 0 612.594 612.594" style="enable-background:new 0 0 612.594 612.594;"
	 xml:space="preserve">
<g>
	<g id="_x39__21_">
		<g>
			<path d="M520.491,159.133l15.674-15.674v-13.148c0-29.587-23.999-53.587-53.587-53.587h-14.181l-14.163,14.181L520.491,159.133z
				 M285.685,437.938l-166.502,82.352c-18.736,8.709-33.741-8.113-26.851-26.85l82.294-166.617
				c1.397-7.178,4.172-14.143,9.741-19.713L414.6,76.725H53.884c-29.588,0-53.587,24-53.587,53.587v428.694
				c0,29.588,23.999,53.588,53.587,53.588h428.694c29.588,0,53.587-24,53.587-53.588V197.257l-230.768,230.94
				C299.828,433.766,292.862,436.541,285.685,437.938z M211.276,334.018c7.139,7.139,42.008,42.047,67.213,67.271l215.112-215.248
				L425.91,119.25L211.276,334.018z M128.771,470.416c-4.345,8.766,4.057,17.779,13.416,13.436l102.811-62.277l-54.008-54.025
				L128.771,470.416z M601.158,78.409l-67.213-67.271c-14.852-14.851-38.927-14.851-53.778,0l-65.529,65.586h53.778L493.621,51.5
				c7.426-7.426,19.464-7.426,26.889,0l40.324,40.362c7.426,7.426,7.426,19.483,0,26.908l-24.669,24.688v53.816l64.993-65.031
				C616.01,117.374,616.01,93.279,601.158,78.409z"/>
		</g>
	</g>
</g>
<g>
</g>
<g>
</g>
<g>
</g>
<g>
</g>
<g>
</g>
<g>
</g>
<g>
</g>
<g>
</g>
<g>
</g>
<g>
</g>
<g>
</g>
<g>
</g>
<g>
</g>
<g>
</g>
<g>
</g>
</svg>
