<?xml version="1.0" ?><svg viewBox="0 0 24 24" xmlns="http://www.w3.org/2000/svg"><title/><g data-name="Layer 1" id="Layer_1"><path d="M22.485,20.022,15.744,13.3a8.241,8.241,0,0,0-1.088-9.954,8.079,8.079,0,0,0-11.315,0,8.077,8.077,0,0,0,0,11.314,8.24,8.24,0,0,0,9.946,1.094l6.735,6.736a1.742,1.742,0,0,0,2.463-2.463ZM4.052,13.944a6.995,6.995,0,0,1,9.892-9.892,6.995,6.995,0,0,1-9.892,9.892Zm17.726,7.834a.745.745,0,0,1-1.049,0L14.1,15.16c.176-.145.364-.313.556-.505s.354-.374.5-.549l6.624,6.623A.745.745,0,0,1,21.778,21.778Z"/></g></svg>